<?xml version="1.0" encoding="UTF-8"?>
<svg width="24px" height="24px" viewBox="0 0 24 24" version="1.1" xmlns="http://www.w3.org/2000/svg">
    <g stroke="none" stroke-width="1" fill="none" fill-rule="evenodd">
        <path d="M19,22H5v-2h14V22z M16,8c0,1.1-0.9,2-2,2H9v2h7l-0.01,2H9v2h2v2H7v-2.01c-2.28-0.53-4-2.6-4-5.1 c0-2.84,2.31-5.15,5.15-5.15c0.13,0,0.26,0,0.39,0.01C8.55,3.62,8.55,3.31,8.55,3c0-0.55,0.45-1,1-1c0.55,0,1,0.45,1,1 c0,0.31,0,0.62-0.01,0.92C12.76,4.43,14,6.03,14,8L16,8z" fill="#0ea5e9"/>
    </g>
</svg> 